<svg id="Group_5" data-name="Group 5" xmlns="http://www.w3.org/2000/svg" xmlns:xlink="http://www.w3.org/1999/xlink" width="279.933" height="25.904" viewBox="0 0 279.933 25.904">
  <defs>
    <linearGradient id="linear-gradient" x1="0.124" y1="0.547" x2="0.919" y2="0.547" gradientUnits="objectBoundingBox">
      <stop offset="0" stop-color="#b760fd"/>
      <stop offset="1" stop-color="#6b37fb"/>
    </linearGradient>
    <clipPath id="clip-path">
      <path id="Path_1" data-name="Path 1" d="M40.989,0c-2.817,0-4.867,0-5.16.005-.086,0-.286,0-.552.005-.083,0-.17,0-.266.008a26.583,26.583,0,0,0-4.753.575,26.16,26.16,0,0,0-4.323,1.32,26.731,26.731,0,0,0-5.266,2.844c.513-.069,1.041-.131,1.58-.179a34.5,34.5,0,0,1,4.186-.13c.441.011.869.032,1.29.058-.52.047-1.017.1-1.5.152-2.235.254-4.053.589-5.344.854-3.143.655-9.814,2.042-9.895,4.143a1.319,1.319,0,0,0,.175.647,1.928,1.928,0,0,0,.2.333q-.348.958-.7,1.919-.283.782-.567,1.563a18.484,18.484,0,0,0-6.163,1.767A7.049,7.049,0,0,0,1.579,17.4C.234,18.86.157,20.714,0,24.422c0,.012,0,.024,0,.038v.048a1.754,1.754,0,0,0,.106.563,1.465,1.465,0,0,0,.934.824H6.147a3.7,3.7,0,0,1-1.876-.706,3.575,3.575,0,0,1-.758-.769,5.479,5.479,0,0,1,1.614-1.8,6.011,6.011,0,0,1,4.448-.872,6.572,6.572,0,0,1,4.005,2.192A4.9,4.9,0,0,1,14.51,25.9H26.324c.11,0,.244.009.4.009h.045c.12,0,.252,0,.393-.009a8.592,8.592,0,0,0,3.85-.942c1.17-.676,1.749-1.652,2.909-3.6a21.6,21.6,0,0,0,1.315-2.6H18.322a11.283,11.283,0,0,1,2.931,3.68q.852.107,1.741.253c1.583.26,3.066.588,4.439.953l-4.439-.055-2.788-.036a13.91,13.91,0,0,0-4.916-4.732,10.794,10.794,0,0,0-3.7-1.245,11.245,11.245,0,0,0-5.513.637,12.22,12.22,0,0,1,5.071-1.646,9.984,9.984,0,0,1,3.318.248,10.542,10.542,0,0,1,1.343.443c.3.128.553.251.74.353h12.97a8.887,8.887,0,0,0,1.668-.132,6.831,6.831,0,0,0,.689-.14,8.242,8.242,0,0,0,2.933-1.343c1.549-1.175,2.6-3.11,3.814-6.515l-18.037.049a3.9,3.9,0,0,1-.352,2.042,4.507,4.507,0,0,1-3.265,2.27l-2.473.071-2.217.065q.416-1.144.832-2.289.437-1.194.874-2.393L22.49,7.522l-.679.612H32.951A9.007,9.007,0,0,0,34.619,8,8.606,8.606,0,0,0,38.24,6.518c1.551-1.176,2.6-3.11,3.815-6.513Z" fill="url(#linear-gradient)"/>
    </clipPath>
    <clipPath id="clip-path-2">
      <rect id="Rectangle_2" data-name="Rectangle 2" width="279.933" height="25.904" fill="none"/>
    </clipPath>
  </defs>
  <g id="Group_2" data-name="Group 2">
    <g id="Group_1" data-name="Group 1" clip-path="url(#clip-path)">
      <rect id="Rectangle_1" data-name="Rectangle 1" width="42.055" height="25.904" transform="translate(0 0)" fill="url(#linear-gradient)"/>
    </g>
  </g>
  <g id="Group_4" data-name="Group 4" transform="translate(0 0)">
    <g id="Group_3" data-name="Group 3" clip-path="url(#clip-path-2)">
      <path id="Path_2" data-name="Path 2" d="M71.932,18.762l-.818,4.051h-4.3l2.475-12.4a2.268,2.268,0,0,1,.829-1.391,2.372,2.372,0,0,1,1.524-.532h9.922a2.366,2.366,0,0,1,1.054.235,2.293,2.293,0,0,1,.8.634,2.552,2.552,0,0,1,.46.91,2.155,2.155,0,0,1,.02,1.064L81.608,22.814h-4.3l.818-4.051Zm6.874-3.355L79.4,12.4a.472.472,0,0,0-.1-.4.457.457,0,0,0-.368-.174H70.786l2.373.717-.573,2.863Z" transform="translate(-21.252 -2.702)" fill="#080056"/>
      <path id="Path_3" data-name="Path 3" d="M100.748,12.544,99.48,18.906a.469.469,0,0,0,.1.4.457.457,0,0,0,.368.173h6.076a.45.45,0,0,0,.3-.112.524.524,0,0,0,.174-.277l.389-2h-1.78a1.357,1.357,0,0,1-.614-.144,1.453,1.453,0,0,1-.481-.378,1.389,1.389,0,0,1-.276-.552,1.457,1.457,0,0,1-.02-.644l.225-1.146h7.815l-1.084,5.524a3.866,3.866,0,0,1-.492,1.238,3.986,3.986,0,0,1-.838.972,3.688,3.688,0,0,1-1.115.634,3.787,3.787,0,0,1-1.3.225H96.963a2.1,2.1,0,0,1-.92-.205,1.993,1.993,0,0,1-.716-.562,2.217,2.217,0,0,1-.41-.808,1.983,1.983,0,0,1-.02-.942l1.984-9.881A2.287,2.287,0,0,1,97.7,9.025a2.328,2.328,0,0,1,1.515-.532h13.655l-.675,3.334H98.354Z" transform="translate(-30.168 -2.702)" fill="#080056"/>
      <path id="Path_4" data-name="Path 4" d="M135.487,17.331h-9.7l2.394.717-.962,4.767h-4.3l2.863-14.321h4.3l-1.1,5.482h7.16l1.1-5.482h4.3l-2.864,14.321h-4.3Z" transform="translate(-39.098 -2.702)" fill="#080056"/>
      <path id="Path_5" data-name="Path 5" d="M161.243,8.493H175.85l-.674,3.335h-7.3l2.393.716L168.2,22.814h-4.767l2.189-10.986h-5.052Z" transform="translate(-51.071 -2.701)" fill="#080056"/>
      <path id="Path_6" data-name="Path 6" d="M194.869,18.762h-5.237l-.818,4.051h-4.3l2.864-14.321H201.17a2.364,2.364,0,0,1,1.054.235,2.287,2.287,0,0,1,.8.634,2.553,2.553,0,0,1,.461.91,2.335,2.335,0,0,1,.04,1.064l-1.1,5.5a2.369,2.369,0,0,1-2.332,1.922h-.92l1.821,4.051h-4.3Zm3.151-3.355a.481.481,0,0,0,.3-.1.474.474,0,0,0,.173-.267L199,12.4a.487.487,0,0,0-.091-.4.431.431,0,0,0-.359-.174H188.487l2.372.717-.573,2.863Z" transform="translate(-58.688 -2.702)" fill="#080056"/>
      <path id="Path_7" data-name="Path 7" d="M219.81,18.762l-.818,4.051h-4.3l2.475-12.4A2.262,2.262,0,0,1,218,9.025a2.369,2.369,0,0,1,1.524-.532h9.922a2.369,2.369,0,0,1,1.054.235,2.3,2.3,0,0,1,.8.634,2.55,2.55,0,0,1,.46.91,2.155,2.155,0,0,1,.021,1.064l-2.292,11.477h-4.3l.818-4.051Zm6.874-3.355.593-3.007a.472.472,0,0,0-.1-.4.459.459,0,0,0-.368-.174h-8.143l2.374.717-.573,2.863Z" transform="translate(-68.286 -2.702)" fill="#080056"/>
      <path id="Path_8" data-name="Path 8" d="M256.888,8.493h4.3L258.32,22.814h-7.385L248.663,11.48h-2.536l2.393.716-2.128,10.618h-4.3l2.864-14.321h7.406l2.271,11.334Z" transform="translate(-77.002 -2.701)" fill="#080056"/>
      <path id="Path_9" data-name="Path 9" d="M271.708,22.814l.674-3.335h12.93l-2.394-.716.226-1.1a.466.466,0,0,0-.1-.4.458.458,0,0,0-.368-.174h-6.608a2.525,2.525,0,0,1-1.146-.267,2.727,2.727,0,0,1-.891-.7,2.614,2.614,0,0,1-.542-2.188l.655-3.335a2.623,2.623,0,0,1,2.578-2.107H305.4a2.124,2.124,0,0,1,.921.2,2.024,2.024,0,0,1,.716.563,2.2,2.2,0,0,1,.408.807,1.992,1.992,0,0,1,.02.942L306.3,16.84a2.369,2.369,0,0,1-2.332,1.922h-10.6l2.373.716-.655,3.335h-4.3l1.473-7.407H301.9a.477.477,0,0,0,.3-.1.468.468,0,0,0,.174-.266l.511-2.639a.487.487,0,0,0-.092-.4.431.431,0,0,0-.358-.174h-26.76l2.374.717-.164.859a.466.466,0,0,0,.1.4.454.454,0,0,0,.368.173h6.424l.388.021a2.446,2.446,0,0,1,1.074.317,2.688,2.688,0,0,1,.809.706,2.742,2.742,0,0,1,.47.971,2.452,2.452,0,0,1,.021,1.136l-.716,3.58a2.625,2.625,0,0,1-2.578,2.107Z" transform="translate(-86.42 -2.702)" fill="#080056"/>
      <path id="Path_10" data-name="Path 10" d="M341.884,8.493a2.328,2.328,0,0,1,1.033.235,2.39,2.39,0,0,1,.808.635,2.461,2.461,0,0,1,.471.91,2.153,2.153,0,0,1,.02,1.063l-1.9,9.555a2.267,2.267,0,0,1-.829,1.39,2.369,2.369,0,0,1-1.524.533H329.568a2.356,2.356,0,0,1-1.054-.236,2.264,2.264,0,0,1-.8-.634,2.529,2.529,0,0,1-.46-.92,2.368,2.368,0,0,1-.04-1.075l1.922-9.533a2.281,2.281,0,0,1,.818-1.391,2.328,2.328,0,0,1,1.514-.533Zm-11.272,3.335,2.394.717-1.268,6.362a.466.466,0,0,0,.1.4.454.454,0,0,0,.368.173h8.613l-2.373-.717,1.269-6.361a.472.472,0,0,0-.1-.4.458.458,0,0,0-.368-.174Z" transform="translate(-104.061 -2.702)" fill="#080056"/>
      <path id="Path_11" data-name="Path 11" d="M365.07,18.762h-5.237l-.818,4.051h-4.3l2.863-14.321h13.789a2.366,2.366,0,0,1,1.054.235,2.293,2.293,0,0,1,.8.634,2.552,2.552,0,0,1,.46.91,2.335,2.335,0,0,1,.041,1.064l-1.1,5.5a2.369,2.369,0,0,1-2.332,1.922h-.921l1.821,4.051h-4.3Zm3.151-3.355a.482.482,0,0,0,.47-.368L369.2,12.4a.487.487,0,0,0-.091-.4.429.429,0,0,0-.358-.174H358.687l2.373.717-.573,2.863Z" transform="translate(-112.822 -2.702)" fill="#080056"/>
      <path id="Path_12" data-name="Path 12" d="M388.761,8.493h14.607l-.675,3.335h-7.3l2.393.716-2.066,10.27H390.95l2.189-10.986h-5.053Z" transform="translate(-123.436 -2.701)" fill="#080056"/>
    </g>
  </g>
</svg>
