<svg xmlns="http://www.w3.org/2000/svg" xmlns:xlink="http://www.w3.org/1999/xlink" width="343.679" height="92.694" viewBox="0 0 343.679 92.694">
  <defs>
    <linearGradient id="linear-gradient" x1="0.035" y1="0.893" x2="1.009" y2="0.459" gradientUnits="objectBoundingBox">
      <stop offset="0" stop-color="#b760fd"/>
      <stop offset="1" stop-color="#6b37fb"/>
    </linearGradient>
    <clipPath id="clip-path">
      <path id="Path_13" data-name="Path 13" d="M218,0c-6.514,0-11.255.009-11.932.014-.2,0-.662,0-1.278.012-.19,0-.394.009-.615.018a61.322,61.322,0,0,0-10.991,1.331,60.487,60.487,0,0,0-10,3.051,61.718,61.718,0,0,0-12.179,6.579c1.188-.161,2.406-.3,3.654-.417a80.122,80.122,0,0,1,9.681-.3c1.019.026,2.012.074,2.982.134-1.2.109-2.353.226-3.467.351-5.17.59-9.374,1.362-12.36,1.977-7.268,1.513-22.7,4.719-22.884,9.582a3.076,3.076,0,0,0,.4,1.5,4.475,4.475,0,0,0,.465.771q-.807,2.217-1.618,4.438-.656,1.807-1.313,3.614A42.694,42.694,0,0,0,132.3,36.739c-2.7,1.327-4.078,2.02-5.439,3.5-3.112,3.38-3.289,7.667-3.649,16.244a3.923,3.923,0,0,0,.243,1.5,3.384,3.384,0,0,0,2.157,1.907h11.811a8.559,8.559,0,0,1-4.338-1.632,8.2,8.2,0,0,1-1.752-1.779,12.7,12.7,0,0,1,3.731-4.156,13.9,13.9,0,0,1,10.289-2.015c1.4.229,6.237,1.218,9.262,5.071a11.356,11.356,0,0,1,2.149,4.511H184.09c.469.02,1.137.034,1.936,0a19.907,19.907,0,0,0,8.9-2.179c2.705-1.561,4.045-3.819,6.727-8.335a49.914,49.914,0,0,0,3.041-6.012H165.583a26.118,26.118,0,0,1,6.779,8.513q1.97.248,4.025.585c3.663.6,7.091,1.359,10.268,2.2-1.746-.022-8.522-.106-10.268-.129l-6.448-.082a32.159,32.159,0,0,0-11.368-10.943,24.932,24.932,0,0,0-8.564-2.878A25.992,25.992,0,0,0,137.256,42.1,28.225,28.225,0,0,1,148.984,38.3a23.006,23.006,0,0,1,7.671.571,24.588,24.588,0,0,1,3.108,1.024c.7.294,1.278.58,1.711.814h30a20.487,20.487,0,0,0,3.857-.3,15.738,15.738,0,0,0,1.6-.325,19.059,19.059,0,0,0,6.782-3.108c3.585-2.717,6.02-7.19,8.82-15.065q-20.854.06-41.71.113A9.031,9.031,0,0,1,170,26.746c-2.076,4.324-7.012,5.166-7.549,5.247-1.387.039-4.334.126-5.721.165l-5.128.152q.963-2.646,1.925-5.292,1.008-2.763,2.019-5.534L175.222,17.4c-.525.473-1.045.945-1.569,1.418h25.761a20.861,20.861,0,0,0,3.857-.3,19.913,19.913,0,0,0,8.373-3.437c3.588-2.718,6.025-7.19,8.824-15.06Z" stroke="rgba(0,0,0,0)" stroke-width="1" fill="url(#linear-gradient)"/>
    </clipPath>
    <clipPath id="clip-path-2">
      <rect id="Rectangle_42" data-name="Rectangle 42" width="343.679" height="92.694" transform="translate(0 0)" fill="#fff"/>
    </clipPath>
  </defs>
  <g id="Group_18" data-name="Group 18" transform="translate(0 0)">
    <g id="Group_15" data-name="Group 15">
      <g id="Group_14" data-name="Group 14" clip-path="url(#clip-path)">
        <rect id="Rectangle_41" data-name="Rectangle 41" width="97.267" height="59.921" transform="translate(123.201 0)" stroke="rgba(0,0,0,0)" stroke-width="1" fill="url(#linear-gradient)"/>
      </g>
    </g>
    <g id="Group_17" data-name="Group 17">
      <g id="Group_16" data-name="Group 16" clip-path="url(#clip-path-2)">
        <path id="Path_14" data-name="Path 14" d="M7.5,86.752,6.3,92.693H0l3.63-18.18a3.326,3.326,0,0,1,1.215-2.04,3.478,3.478,0,0,1,2.235-.78H21.63a3.47,3.47,0,0,1,1.545.345,3.363,3.363,0,0,1,1.17.93A3.742,3.742,0,0,1,25.02,74.3a3.161,3.161,0,0,1,.03,1.56l-3.36,16.83h-6.3l1.2-5.941Zm10.08-4.92.87-4.409a.692.692,0,0,0-.15-.586.671.671,0,0,0-.54-.255H5.82L9.3,77.633l-.84,4.2Z" fill="#fff"/>
        <path id="Path_15" data-name="Path 15" d="M36.682,77.634l-1.86,9.33a.688.688,0,0,0,.149.586.67.67,0,0,0,.54.253h8.91a.66.66,0,0,0,.436-.164.768.768,0,0,0,.255-.406l.57-2.939h-2.61a1.99,1.99,0,0,1-.9-.211,2.131,2.131,0,0,1-.705-.555,2.036,2.036,0,0,1-.4-.809,2.136,2.136,0,0,1-.03-.945l.33-1.68h11.46l-1.59,8.1a5.669,5.669,0,0,1-.721,1.815,5.846,5.846,0,0,1-1.229,1.425,5.408,5.408,0,0,1-1.635.93,5.553,5.553,0,0,1-1.9.33H31.131a3.086,3.086,0,0,1-1.349-.3,2.923,2.923,0,0,1-1.05-.824,3.251,3.251,0,0,1-.6-1.185A2.908,2.908,0,0,1,28.1,89l2.909-14.489a3.354,3.354,0,0,1,1.2-2.04,3.414,3.414,0,0,1,2.221-.78H54.456l-.99,4.889H33.171Z" fill="#fff"/>
        <path id="Path_16" data-name="Path 16" d="M74.529,84.653H60.308L63.819,85.7l-1.41,6.99h-6.3l4.2-21h6.3l-1.62,8.039h10.5l1.62-8.039h6.3l-4.2,21h-6.3Z" fill="#fff"/>
        <path id="Path_17" data-name="Path 17" d="M94.74,71.693h21.42l-.989,4.89h-10.71l3.509,1.05-3.03,15.06H97.95l3.21-16.11H93.751Z" fill="#fff"/>
        <path id="Path_18" data-name="Path 18" d="M132.88,86.752H125.2L124,92.693h-6.3l4.2-21h20.22a3.467,3.467,0,0,1,1.545.345,3.354,3.354,0,0,1,1.17.93,3.744,3.744,0,0,1,.676,1.335,3.425,3.425,0,0,1,.059,1.56l-1.62,8.071a3.474,3.474,0,0,1-3.42,2.818h-1.349l2.67,5.941h-6.3Zm4.62-4.92a.7.7,0,0,0,.436-.148.7.7,0,0,0,.254-.391l.75-3.87a.715.715,0,0,0-.134-.586.632.632,0,0,0-.526-.255H123.521L127,77.633l-.84,4.2Z" fill="#fff"/>
        <path id="Path_19" data-name="Path 19" d="M155.379,86.752l-1.2,5.941h-6.3l3.63-18.18a3.317,3.317,0,0,1,1.215-2.04,3.474,3.474,0,0,1,2.235-.78h14.55a3.473,3.473,0,0,1,1.545.345,3.372,3.372,0,0,1,1.17.93A3.74,3.74,0,0,1,172.9,74.3a3.16,3.16,0,0,1,.031,1.56l-3.361,16.83h-6.3l1.2-5.941Zm10.08-4.92.869-4.409a.692.692,0,0,0-.149-.586.674.674,0,0,0-.54-.255H153.7l3.481,1.051-.84,4.2Z" fill="#fff"/>
        <path id="Path_20" data-name="Path 20" d="M196.97,71.693h6.3l-4.2,21H188.24l-3.331-16.62H181.19l3.509,1.05-3.12,15.57h-6.3l4.2-21h10.86l3.33,16.62Z" fill="#fff"/>
        <path id="Path_21" data-name="Path 21" d="M204.891,92.694l.989-4.891h18.96l-3.51-1.05.331-1.62a.684.684,0,0,0-.15-.584.672.672,0,0,0-.54-.255h-9.69a3.7,3.7,0,0,1-1.68-.391,4,4,0,0,1-1.306-1.02,3.833,3.833,0,0,1-.795-3.209l.96-4.891a3.847,3.847,0,0,1,3.781-3.089H254.3a3.115,3.115,0,0,1,1.351.3,2.967,2.967,0,0,1,1.05.826A3.227,3.227,0,0,1,257.3,74a2.92,2.92,0,0,1,.03,1.381l-1.71,8.55a3.474,3.474,0,0,1-3.419,2.819h-15.54l3.48,1.05-.96,4.891h-6.3l2.16-10.861h14.13a.7.7,0,0,0,.436-.149.686.686,0,0,0,.255-.39l.75-3.87a.714.714,0,0,0-.135-.586.632.632,0,0,0-.525-.255H210.71l3.481,1.051-.24,1.26a.684.684,0,0,0,.15.585.666.666,0,0,0,.54.254h9.42l.569.031a3.587,3.587,0,0,1,1.575.465,3.942,3.942,0,0,1,1.186,1.035,4.021,4.021,0,0,1,.689,1.424,3.6,3.6,0,0,1,.031,1.666l-1.05,5.25a3.849,3.849,0,0,1-3.78,3.09Z" fill="#fff"/>
        <path id="Path_22" data-name="Path 22" d="M281.929,71.693a3.414,3.414,0,0,1,1.515.345,3.505,3.505,0,0,1,1.185.931,3.609,3.609,0,0,1,.69,1.335,3.156,3.156,0,0,1,.03,1.559l-2.79,14.011a3.324,3.324,0,0,1-1.215,2.039,3.473,3.473,0,0,1-2.235.781h-15.24a3.454,3.454,0,0,1-1.545-.346,3.32,3.32,0,0,1-1.17-.93,3.708,3.708,0,0,1-.675-1.349,3.471,3.471,0,0,1-.059-1.576l2.819-13.979a3.345,3.345,0,0,1,1.2-2.04,3.414,3.414,0,0,1,2.22-.781Zm-16.53,4.89,3.51,1.051-1.86,9.329a.684.684,0,0,0,.15.586.666.666,0,0,0,.54.254h12.63l-3.48-1.051,1.861-9.328a.692.692,0,0,0-.151-.586.671.671,0,0,0-.54-.255Z" fill="#fff"/>
        <path id="Path_23" data-name="Path 23" d="M303.082,86.752H295.4l-1.2,5.941h-6.3l4.2-21h20.221a3.47,3.47,0,0,1,1.545.345,3.362,3.362,0,0,1,1.17.93,3.742,3.742,0,0,1,.675,1.335,3.424,3.424,0,0,1,.06,1.56l-1.62,8.071a3.474,3.474,0,0,1-3.42,2.818h-1.35l2.67,5.941h-6.3Zm4.62-4.92a.707.707,0,0,0,.689-.539l.75-3.87a.715.715,0,0,0-.134-.586.629.629,0,0,0-.525-.255h-14.76l3.48,1.051-.84,4.2Z" fill="#fff"/>
        <path id="Path_24" data-name="Path 24" d="M322.259,71.693h21.42l-.99,4.89h-10.71l3.509,1.05-3.029,15.06h-6.99l3.21-16.11h-7.41Z" fill="#fff"/>
      </g>
    </g>
  </g>
</svg>
